<svg width="338" height="84" viewBox="0 0 338 84" xmlns="http://www.w3.org/2000/svg"><g fill-rule="nonzero" fill="#FF4900"><path d="M33.207 45.614c0 9.97-3.114 14.153-7.832 14.153-6.32 0-11.572-7.297-11.572-20.115 0-12.016 4.274-18.244 10.681-18.244 3.293 0 6.676 1.957 8.723 6.586v17.62ZM46.114.133l-20.38 5.254v.445l4.449 2.492c2.582 1.423 3.027 2.403 3.027 5.696v6.231c-2.403-.445-4.716-.622-7.208-.622C11.317 19.63.28 30.131.28 45.886c0 13.618 7.209 21.807 17.713 21.807 7.121 0 12.372-4.45 15.486-12.549v11.658h18.247v-2.047H46.12V.133h-.006ZM210.147 65.909c-3.293 0-6.676-1.958-8.723-6.587V41.699c0-9.97 3.114-14.153 7.832-14.153 6.32 0 11.572 7.298 11.572 20.115 0 12.017-4.27 18.248-10.681 18.248M79.403 49.888c0 6.852-1.958 10.5-6.052 10.5-4.005 0-7.032-3.827-7.032-8.899 0-4.004 1.781-6.14 6.587-7.832l6.497-2.227v8.458Zm137.244-30.261c-7.122 0-12.372 4.45-15.486 12.548V20.517h-32.757v.445l7.388 6.677c1.78 1.691 2.403 3.027 2.403 4.715 0 1.067-.18 2.227-.801 3.65l-7.743 18.602-13.795-32.042h7.653v-2.047h-25.097V.136l-18.603 5.25v.446l3.383 2.492c1.958 1.426 2.313 2.403 2.313 5.696v50.732h-9.79V19.537l-18.603 5.25v.446l3.383 2.492c1.957 1.426 2.313 2.403 2.313 5.696V64.75H92.304V35.38c0-10.146-4.806-15.752-19.58-15.752-11.838 0-18.69 5.43-18.69 11.747 0 4.184 3.027 7.208 7.208 7.208 4.184 0 7.121-3.027 7.121-7.208 0-4.094-3.114-6.942-7.297-6.942-.356 0-.712 0-1.067.09 2.313-1.513 5.516-2.493 8.989-2.493 7.298 0 11.126 4.005 11.126 10.236 0 5.516-2.582 7.743-7.298 9.434l-8.634 3.027c-7.477 2.582-10.414 5.786-10.414 11.126 0 6.853 5.16 11.838 12.193 11.838 6.051 0 10.77-3.56 13.974-10.502V66.8h64.084v-2.047h-5.607V22.564h3.114l21.362 48.24-.801 1.867c-2.403 5.786-5.34 8.278-8.99 8.813 1.868-1.156 2.938-3.293 2.938-5.785 0-4.005-2.848-6.763-6.766-6.763-4.183 0-7.208 2.937-7.208 6.942 0 5.074 3.56 7.833 8.9 7.833 6.051 0 9.97-2.938 13.173-10.502l21.272-50.642h3.114v58.209h-5.607v2.047h26.612v-2.047h-8.098V67.068c2.402.445 4.718.625 7.208.625 14.685 0 25.721-10.502 25.721-26.257 0-13.621-7.208-21.81-17.71-21.81M263.909 49.888c0 6.852-1.958 10.5-6.052 10.5-4.004 0-7.032-3.827-7.032-8.899 0-4.004 1.782-6.14 6.587-7.832l6.497-2.227v8.458Zm18.51 16.911v-2.047h-5.606V35.379c0-10.146-4.805-15.752-19.58-15.752-11.837 0-18.69 5.43-18.69 11.747 0 4.184 3.027 7.208 7.208 7.208 4.184 0 7.122-3.027 7.122-7.208 0-4.094-3.114-6.942-7.298-6.942-.356 0-.711 0-1.067.09 2.313-1.513 5.517-2.493 8.99-2.493 7.297 0 11.125 4.005 11.125 10.236 0 5.516-2.582 7.743-7.298 9.434l-8.633 3.027c-7.477 2.582-10.415 5.786-10.415 11.126 0 6.853 5.161 11.838 12.193 11.838 6.051 0 10.77-3.56 13.974-10.502V66.8h17.975Z"/><path d="m322.294 27.725 4.63-6.763v-.445h-20.206v.445l7.388 6.677c1.78 1.691 2.403 3.027 2.403 4.718 0 1.067-.18 2.047-.712 3.383l-7.832 18.87-13.795-32.043h7.653V20.52h-26.346v2.047h4.36l21.362 48.24-.801 1.867c-2.403 5.786-5.34 8.278-8.99 8.81 1.868-1.156 2.938-3.293 2.938-5.785 0-4.005-2.848-6.763-6.763-6.763-4.183 0-7.208 2.937-7.208 6.942 0 5.074 3.56 7.833 8.9 7.833 6.051 0 10.056-2.938 13.173-10.502l15.576-37.203c1.867-4.453 2.579-5.699 4.27-8.28M333.813 64.752a8.104 8.104 0 0 0 1.614-4.863 8.15 8.15 0 0 0-8.148-8.148 8.15 8.15 0 0 0-8.148 8.148 8.11 8.11 0 0 0 1.613 4.863h-4.056v2.047h21.185v-2.047h-4.06ZM108.952 16.154A8.01 8.01 0 1 0 108.95.138a8.01 8.01 0 0 0 .002 16.016"/></g></svg>