<svg width="24" height="24" viewBox="0 0 24 24" xmlns="http://www.w3.org/2000/svg"><g fill="#383D4A" fill-rule="evenodd"><path d="M11.886 16.6c-5.048 0-8.156-3.47-8.898-4.4.74-.932 3.839-4.4 8.898-4.4 5.048 0 8.156 3.47 8.898 4.4-.74.931-3.839 4.4-8.898 4.4Zm9.73-4.627c-.14-.203-3.5-4.973-9.73-4.973s-9.59 4.77-9.73 4.973L2 12.2l.157.226c.14.204 3.499 4.974 9.729 4.974 6.23 0 9.59-4.77 9.73-4.974l.156-.226-.157-.227Z"/><path d="M11.887 15a2.804 2.804 0 0 1-2.8-2.8c0-1.544 1.257-2.8 2.8-2.8 1.544 0 2.8 1.256 2.8 2.8 0 1.544-1.256 2.8-2.8 2.8m0-6.4a3.604 3.604 0 0 0-3.6 3.6c0 1.985 1.615 3.6 3.6 3.6s3.6-1.615 3.6-3.6-1.615-3.6-3.6-3.6"/></g></svg>