<svg width="24" height="24" viewBox="0 0 24 24" xmlns="http://www.w3.org/2000/svg" xmlns:xlink="http://www.w3.org/1999/xlink"><defs><path id="a" d="M0 .363h12.756v8.925H0z"/><path id="c" d="M.22.244h12.752v8.919H.22z"/><path id="e" d="M.249.325h15.275V15.6H.249z"/></defs><g fill="none" fill-rule="evenodd"><g transform="translate(2 6.475)"><mask id="b" fill="#fff"><use xlink:href="#a"/></mask><path d="M4.788 8.684a12.63 12.63 0 0 1-3.8-3.12c.74-.933 3.84-4.4 8.9-4.4.776 0 1.508.084 2.192.228l.676-.676A11.712 11.712 0 0 0 9.888.363C3.656.363.296 5.131.156 5.336L0 5.563l.156.225c.089.128 1.46 2.08 4.028 3.5l.604-.604Z" fill="#383D4A" mask="url(#b)"/></g><g transform="translate(8.8 8.075)"><mask id="d" fill="#fff"><use xlink:href="#c"/></mask><path d="M12.816 3.736c-.088-.128-1.46-2.076-4.028-3.492l-.6.6c2.056 1.087 3.353 2.56 3.796 3.12-.74.931-3.836 4.4-8.896 4.4-.776 0-1.508-.084-2.192-.228l-.676.676c.876.22 1.832.351 2.868.351 6.228 0 9.588-4.771 9.728-4.975l.156-.225-.156-.227Z" fill="#383D4A" mask="url(#d)"/></g><path d="M11.888 9.238c.253 0 .492.032.725.096l.628-.628a3.475 3.475 0 0 0-1.353-.268 3.6 3.6 0 0 0-3.6 3.6c0 .477.092.936.268 1.353l.632-.632a2.528 2.528 0 0 1-.1-.72c0-1.544 1.257-2.8 2.8-2.8M11.888 14.838c-.252 0-.492-.032-.724-.096l-.628.628c.416.177.873.268 1.352.268 1.984 0 3.6-1.615 3.6-3.6 0-.475-.092-.936-.268-1.351l-.632.632c.068.228.1.472.1.72 0 1.544-1.256 2.8-2.8 2.8" fill="#383D4A"/><g transform="translate(4 4.075)"><mask id="f" fill="#fff"><use xlink:href="#e"/></mask><path d="M15.407.442a.4.4 0 0 0-.566 0L.366 14.917a.4.4 0 0 0 .566.566L15.407 1.008a.4.4 0 0 0 0-.566" fill="#383D4A" mask="url(#f)"/></g></g></svg>