<svg xmlns="http://www.w3.org/2000/svg" xmlns:xlink="http://www.w3.org/1999/xlink" width="24" height="24" viewBox="0 0 24 24">
    <defs>
        <path id="prefix__a" d="M11.85 10.44c.095.094.148.222.148.355 0 .133-.053.261-.148.355l-.7.7c-.094.095-.222.148-.355.148-.133 0-.261-.053-.355-.148L6 7.41l-4.44 4.44c-.094.095-.222.148-.355.148-.133 0-.261-.053-.355-.148l-.7-.7c-.095-.094-.148-.222-.148-.355 0-.133.053-.261.148-.355L4.59 6 .15 1.56c-.095-.094-.148-.222-.148-.355 0-.133.053-.261.148-.355l.7-.7c.094-.095.222-.148.355-.148.133 0 .261.053.355.148L6 4.59 10.44.15c.094-.095.222-.148.355-.148.133 0 .261.053.355.148l.7.7c.095.094.148.222.148.355 0 .133-.053.261-.148.355L7.41 6l4.44 4.44z"/>
    </defs>
    <g fill="none" fill-rule="evenodd" transform="translate(6 6)">
        <use fill="#68777D" opacity="1" xlink:href="#prefix__a"/>
    </g>
</svg>
