<?xml version="1.0" encoding="UTF-8"?>
<svg width="338px" height="84px" viewBox="0 0 338 84" version="1.1" xmlns="http://www.w3.org/2000/svg" xmlns:xlink="http://www.w3.org/1999/xlink">
    <title>07 - Logos/01 - B2C Logo</title>
    <g id="📄-Styleguide" stroke="none" stroke-width="1" fill="none" fill-rule="evenodd">
        <g id="200-Rebrand-Logos" transform="translate(-428.000000, -230.000000)" fill="#FF4900">
            <g id="B2C-Logo" transform="translate(325.000000, 0.000000)">
                <g id="21--DP-Logos-Rebrand/01---B2C-Logo" transform="translate(103.000000, 230.000000)">
                    <g id="DailyPay.Wordmark.RGB.Orange" transform="translate(0.000000, -0.000000)">
                        <path d="M33.2072712,45.6140975 C33.2072712,55.5835073 30.0932763,59.7673054 25.3745766,59.7673054 C19.0540633,59.7673054 13.8033533,52.4695124 13.8033533,39.6521129 C13.8033533,27.6356202 18.0767836,21.4076305 24.4840376,21.4076305 C27.7772968,21.4076305 31.1601882,23.3650813 33.2072712,27.9941488 L33.2072712,45.6140975 L33.2072712,45.6140975 Z M46.1143028,0.133002566 L25.7331052,5.38660393 L25.7331052,5.8318734 L30.1829085,8.32422583 C32.7648931,9.74677502 33.2101625,10.7269461 33.2101625,14.0202053 L33.2101625,20.2510864 C30.8074423,19.8058169 28.4943541,19.629444 26.0020017,19.629444 C11.3167836,19.629444 0.280461933,30.130864 0.280461933,45.8858854 C0.280461933,59.5041916 7.48862275,67.6925235 17.9929341,67.6925235 C25.1143541,67.6925235 30.3650642,63.2427203 33.479059,55.1440205 L33.479059,66.8019846 L51.7264328,66.8019846 L51.7264328,64.7549016 L46.1200855,64.7549016 L46.1200855,0.133002566 L46.1143028,0.133002566 Z" id="Shape" fill-rule="nonzero"></path>
                        <path d="M210.146946,65.9085543 C206.853687,65.9085543 203.470796,63.9511035 201.423713,59.3220359 L201.423713,41.6991959 C201.423713,31.7297861 204.537707,27.545988 209.256407,27.545988 C215.57692,27.545988 220.82763,34.843781 220.82763,47.6611805 C220.82763,59.6776732 216.557092,65.9085543 210.146946,65.9085543 M79.4025321,49.8875278 C79.4025321,56.7400513 77.4450813,60.3889478 73.3509153,60.3889478 C69.3463815,60.3889478 66.3191275,56.560787 66.3191275,51.4893413 C66.3191275,47.4848075 68.1002053,45.3480924 72.9056459,43.6566467 L79.4025321,41.4302994 L79.4025321,49.8875278 Z M216.646724,19.6265526 C209.525304,19.6265526 204.274594,24.0763559 201.160599,32.1750556 L201.160599,20.5170915 L168.40438,20.5170915 L168.40438,20.962361 L175.791805,27.6385115 C177.572883,29.3299572 178.194525,30.6657656 178.194525,32.3543199 C178.194525,33.4212318 178.015261,34.5806672 177.393618,36.0032164 L169.650556,54.6062275 L155.855877,22.5641745 L163.509307,22.5641745 L163.509307,20.5170915 L138.412301,20.5170915 L138.412301,0.135893926 L119.80929,5.38660393 L119.80929,5.8318734 L123.192181,8.32422583 C125.149632,9.74966638 125.505269,10.7269461 125.505269,14.0202053 L125.505269,64.7520103 L115.715124,64.7520103 L115.715124,19.5369204 L97.1121129,24.7876305 L97.1121129,25.2328999 L100.495004,27.7252524 C102.452455,29.1506929 102.808092,30.1279726 102.808092,33.4212318 L102.808092,64.7491189 L92.303781,64.7491189 L92.303781,35.3786826 C92.303781,25.2328999 87.4983405,19.6265526 72.7234902,19.6265526 C60.8862618,19.6265526 54.0337382,25.0565269 54.0337382,31.3741488 C54.0337382,35.557947 57.0609923,38.5823097 61.2418991,38.5823097 C65.4256972,38.5823097 68.3633191,35.5550556 68.3633191,31.3741488 C68.3633191,27.2799829 65.2493242,24.4319932 61.0655261,24.4319932 C60.7098888,24.4319932 60.3542515,24.4319932 59.9986142,24.5216253 C62.3117023,23.009444 65.5153293,22.0292729 68.9878529,22.0292729 C76.2856459,22.0292729 80.1138067,26.0338067 80.1138067,32.2646878 C80.1138067,37.7814029 77.5318221,40.0077502 72.8160137,41.6991959 L64.1824123,44.72645 C56.705355,47.3084346 53.7677331,50.5120616 53.7677331,55.8524038 C53.7677331,62.7049273 58.9288109,67.6896322 65.9605988,67.6896322 C72.0122156,67.6896322 76.7309153,64.1303678 79.9345423,57.1882121 L79.9345423,66.7990932 L144.018648,66.7990932 L144.018648,64.7520103 L138.412301,64.7520103 L138.412301,22.5641745 L141.526296,22.5641745 L162.887665,70.803627 L162.086758,72.6714457 C159.684038,78.4570573 156.746416,80.9494098 153.097519,81.4843114 C154.965338,80.3277673 156.035141,78.1910522 156.035141,75.6986997 C156.035141,71.694166 153.187151,68.9358084 149.269358,68.9358084 C145.08556,68.9358084 142.061198,71.8734303 142.061198,75.8779641 C142.061198,80.9523011 145.620462,83.7106587 150.960804,83.7106587 C157.012421,83.7106587 160.930214,80.7730368 164.133841,73.2092387 L185.405577,22.5670659 L188.519572,22.5670659 L188.519572,80.7759281 L182.913225,80.7759281 L182.913225,82.8230111 L209.525304,82.8230111 L209.525304,80.7759281 L201.426604,80.7759281 L201.426604,67.0679897 C203.829324,67.5132592 206.145304,67.6925235 208.634765,67.6925235 C223.319983,67.6925235 234.356305,57.1911035 234.356305,41.4360821 C234.356305,27.8148845 227.148144,19.6265526 216.646724,19.6265526" id="Shape" fill-rule="nonzero"></path>
                        <path d="M263.908896,49.8875278 C263.908896,56.7400513 261.951446,60.3889478 257.85728,60.3889478 C253.852746,60.3889478 250.825492,56.560787 250.825492,51.4893413 C250.825492,47.4848075 252.60657,45.3480924 257.41201,43.6566467 L263.908896,41.4302994 L263.908896,49.8875278 Z M282.419384,66.7990932 L282.419384,64.7520103 L276.813037,64.7520103 L276.813037,35.3786826 C276.813037,25.2328999 272.007596,19.6265526 257.232746,19.6265526 C245.395518,19.6265526 238.542994,25.0565269 238.542994,31.3741488 C238.542994,35.557947 241.570248,38.5823097 245.751155,38.5823097 C249.934953,38.5823097 252.872575,35.5550556 252.872575,31.3741488 C252.872575,27.2799829 249.75858,24.4319932 245.574782,24.4319932 C245.219145,24.4319932 244.863507,24.4319932 244.50787,24.5216253 C246.820958,23.009444 250.024585,22.0292729 253.497109,22.0292729 C260.794902,22.0292729 264.623062,26.0338067 264.623062,32.2646878 C264.623062,37.7814029 262.041078,40.0077502 257.325269,41.6991959 L248.691668,44.72645 C241.214611,47.3084346 238.276989,50.5120616 238.276989,55.8524038 C238.276989,62.7049273 243.438067,67.6896322 250.469855,67.6896322 C256.521471,67.6896322 261.240171,64.1303678 264.443798,57.1882121 L264.443798,66.7990932 L282.419384,66.7990932 L282.419384,66.7990932 Z" id="Shape" fill-rule="nonzero"></path>
                        <path d="M322.294132,27.7252524 L326.923199,20.962361 L326.923199,20.5170915 L306.718375,20.5170915 L306.718375,20.962361 L314.1058,27.6385115 C315.886878,29.3299572 316.50852,30.6657656 316.50852,32.3572113 C316.50852,33.4241232 316.329256,34.4042943 315.797246,35.7401027 L307.964551,54.6091189 L294.169872,22.5670659 L301.823302,22.5670659 L301.823302,20.5199829 L275.477228,20.5199829 L275.477228,22.5670659 L279.837399,22.5670659 L301.198768,70.8065184 L300.397861,72.674337 C297.995141,78.4599487 295.057519,80.9523011 291.408623,81.4843114 C293.276441,80.3277673 294.346245,78.1910522 294.346245,75.6986997 C294.346245,71.694166 291.498255,68.9358084 287.583353,68.9358084 C283.399555,68.9358084 280.375192,71.8734303 280.375192,75.8779641 C280.375192,80.9523011 283.934457,83.7106587 289.274799,83.7106587 C295.326416,83.7106587 299.33095,80.7730368 302.447836,73.2092387 L318.023593,36.0061078 C319.891411,31.5534132 320.602686,30.307237 322.294132,27.7252524" id="Path" fill-rule="nonzero"></path>
                        <path d="M333.813311,64.7520103 C334.825287,63.3959624 335.426689,61.7131908 335.426689,59.8887425 C335.426689,55.3897861 331.777793,51.7408896 327.278837,51.7408896 C322.77988,51.7408896 319.130984,55.3897861 319.130984,59.8887425 C319.130984,61.7131908 319.732387,63.393071 320.744363,64.7520103 L316.687784,64.7520103 L316.687784,66.7990932 L337.87278,66.7990932 L337.87278,64.7520103 L333.813311,64.7520103 Z" id="Path" fill-rule="nonzero"></path>
                        <path d="M108.952233,16.1540291 C113.376014,16.1540291 116.9613,12.5687425 116.9613,8.14496151 C116.9613,3.7211805 113.373122,0.135893926 108.952233,0.135893926 C104.528452,0.135893926 100.943163,3.7211805 100.943163,8.14496151 C100.940274,12.5687425 104.528452,16.1540291 108.952233,16.1540291" id="Path" fill-rule="nonzero"></path>
                    </g>
                </g>
            </g>
        </g>
    </g>
</svg>